PathFileType  4	(X/Y/Z) C:\Users\antoi\Documents\MyRepositories\mobilecap\ResultsAnalysis
DataRate	CameraRate	NumFrames	NumMarkers	Units	OrigDataRate	OrigDataStartFrame	OrigNumFrames
100.0	100.0	6	51	mm	100.0	57	150
Frame#	Time	r_knee			r_shank_antsup			r_ankle			r_calc			r_5meta			r_toe			L_knee			L_shank_antsup			L_ankle			L_calc			L_5meta			L_toe			r_sh2			r_sh3			r_sh4			L_sh2			L_sh3			r_thigh1			r_thigh2			r_thigh3			r_thigh4			r_thigh5			L_thigh1			L_thigh2			L_thigh3			L_thigh4			r.ASIS			r.PSIS			L.ASIS			L.PSIS			C7			R_Shoulder			L_Shoulder			R_Sternum			L_Sternum			R_humerus			R_elbow_med			R_elbow_lat			R_forearm			R_wrist_radius			R_wrist_ulna			L_humerus			L_elbow_med			L_elbow_lat			L_forearm			L_wrist_radius			L_wrist_ulna			R_HJC			L_HJC			R_HJC_reg			L_HJC_reg			
		X1	Y1	Z1	X2	Y2	Z2	X3	Y3	Z3	X4	Y4	Z4	X5	Y5	Z5	X6	Y6	Z6	X7	Y7	Z7	X8	Y8	Z8	X9	Y9	Z9	X10	Y10	Z10	X11	Y11	Z11	X12	Y12	Z12	X13	Y13	Z13	X14	Y14	Z14	X15	Y15	Z15	X16	Y16	Z16	X17	Y17	Z17	X18	Y18	Z18	X19	Y19	Z19	X20	Y20	Z20	X21	Y21	Z21	X22	Y22	Z22	X23	Y23	Z23	X24	Y24	Z24	X25	Y25	Z25	X26	Y26	Z26	X27	Y27	Z27	X28	Y28	Z28	X29	Y29	Z29	X30	Y30	Z30	X31	Y31	Z31	X32	Y32	Z32	X33	Y33	Z33	X34	Y34	Z34	X35	Y35	Z35	X36	Y36	Z36	X37	Y37	Z37	X38	Y38	Z38	X39	Y39	Z39	X40	Y40	Z40	X41	Y41	Z41	X42	Y42	Z42	X43	Y43	Z43	X44	Y44	Z44	X45	Y45	Z45	X46	Y46	Z46	X47	Y47	Z47	X48	Y48	Z48	X49	Y49	Z49	X50	Y50	Z50	X51	Y51	Z51	

57	0.56000000	345.71425	518.00213	-18.86384	342.65550	430.81324	-16.14667	162.14613	111.88327	-56.57531	89.62117	68.77839	-97.06920	296.94780	35.83543	-32.89518	327.04367	57.50233	-95.90185	645.26994	533.59337	-298.04902	720.77566	442.23590	-312.59604	810.59821	118.80705	-294.80198	760.92468	50.57907	-258.15499	982.96692	101.58987	-317.99428	987.62365	137.69435	-253.72493	302.14352	325.98831	-16.59224	275.24599	456.28592	10.38224	223.90019	353.25713	2.53303	633.88833	415.79341	-324.16645	682.19863	304.37330	-325.71483	491.24054	814.48838	30.69921	482.75245	707.88692	6.84794	422.22964	684.68074	29.31799	379.29972	821.83666	35.64163	370.42692	707.11223	20.38264	583.46967	849.79476	-315.12117	642.06041	724.75435	-316.34825	476.74743	797.33635	-324.06011	545.24252	674.79727	-325.57214	546.28486	1015.48077	-7.14384	358.33504	1068.96426	-94.22806	555.08140	1009.30047	-267.46395	357.87322	1059.96339	-198.35531	424.20869	1559.56194	-248.31169	462.98105	1561.19236	-63.17100	511.58883	1498.28050	-384.71521	565.65434	1490.11814	-178.94137	573.20496	1476.38823	-233.46640	380.17956	1327.55310	74.84884	331.57028	1228.18567	18.74694	338.92221	1248.72413	100.09135	406.88538	1107.48468	144.60830	451.96807	1002.86963	157.13621	408.65754	1001.58409	169.02280	425.02466	1254.73175	-460.22582	348.26430	1188.43171	-398.20891	371.30628	1180.91305	-463.83550	383.22576	1007.16198	-474.88428	395.58828	910.02100	-462.73724	356.67696	910.59175	-472.86396	456.25723	943.39404	-15.87400	466.08764	936.00436	-245.91405	468.63135	953.80436	-38.24973	467.87039	938.99562	-209.56583	
58	0.57000000	355.23465	516.81937	-18.24626	350.52252	429.39554	-15.36829	163.70841	114.07056	-56.03341	90.54619	72.06174	-96.85727	297.01382	35.71827	-32.74967	327.10353	57.19329	-95.82747	656.86964	531.60276	-297.70889	733.02288	440.68061	-311.96221	824.04993	117.87323	-295.11261	775.99370	47.51023	-260.25130	997.12497	106.63179	-317.74366	1000.17574	142.11368	-252.72187	307.94220	325.45009	-15.89486	283.54964	456.29506	10.96152	230.15337	354.30779	3.02818	646.50544	413.99136	-324.88231	695.26456	302.79836	-326.58763	501.93160	812.73499	31.52153	493.26732	706.14238	8.24459	432.40164	683.23713	29.97441	389.94002	820.67450	35.86998	380.75743	705.86473	20.70517	596.06756	847.81460	-315.14688	654.05944	722.59865	-316.25748	489.08423	795.96994	-323.88821	557.03846	673.08938	-325.51152	558.11956	1013.65755	-6.41245	370.72154	1067.17720	-94.22721	568.36775	1007.50614	-266.90144	370.58339	1058.17122	-198.26293	437.96438	1556.36372	-252.94179	476.10383	1560.62595	-67.79959	526.25688	1493.35002	-388.44584	579.16338	1487.71745	-182.35709	586.65760	1473.08700	-236.74920	391.50003	1328.99079	72.47487	342.19595	1229.47609	17.26388	349.65603	1250.62178	98.41720	416.34836	1109.29184	144.11835	460.90909	1004.18849	157.26763	417.51995	1003.43415	169.34942	437.91990	1250.26603	-462.69139	360.29314	1184.85004	-400.55967	383.26710	1176.93018	-466.16969	393.51922	1003.07724	-476.84673	405.35596	905.93969	-464.78701	365.98144	906.36631	-474.41848	468.27840	941.54775	-15.55663	479.08674	934.24442	-245.55430	480.80348	952.01426	-37.77608	480.57527	937.17042	-209.23993	
59	0.58000000	365.32419	515.61187	-17.62435	358.89889	427.96090	-14.54572	165.49799	116.57168	-55.40909	91.65767	75.89428	-96.58707	297.11495	35.59266	-32.59587	327.16335	56.93489	-95.73869	669.01244	529.83082	-297.21561	745.01653	438.57095	-311.29790	834.56644	115.91963	-295.02206	787.30262	44.62050	-261.40960	1007.82009	108.15388	-317.70158	1010.15580	143.29645	-252.17575	314.07847	324.92254	-15.15784	292.41914	456.35897	11.58937	236.84708	355.50107	3.56910	658.59461	412.28102	-325.14549	706.89939	300.95793	-326.86937	512.85724	811.11356	32.23371	504.08913	704.54856	9.42871	442.96447	681.88196	30.60279	400.73002	819.55934	36.03124	391.44905	704.59682	20.95818	609.13405	846.49617	-314.93615	666.88336	721.13737	-315.80327	502.14322	794.88537	-323.73229	569.77806	671.82510	-325.23319	569.97647	1011.96544	-5.75101	383.18898	1065.50214	-94.43862	581.80766	1005.85994	-266.40208	383.41953	1056.50911	-198.34923	451.74638	1553.29699	-257.57772	489.25179	1560.14407	-72.45358	540.79568	1488.54494	-392.17175	592.83185	1485.43927	-185.83530	600.19868	1469.86266	-240.10061	402.87292	1330.52485	69.98019	352.87276	1230.90106	15.65521	360.43940	1252.63962	96.61582	425.87521	1111.21267	143.50588	469.81851	1005.64959	157.33580	426.40537	1005.39883	169.58192	451.13028	1245.79633	-465.15217	372.64567	1181.21031	-403.01730	395.68672	1172.88894	-468.55406	404.39191	998.97005	-478.84342	415.63749	901.79793	-466.73677	375.81586	902.03283	-476.08395	480.32973	939.82531	-15.37693	492.25022	932.62100	-245.32094	493.02799	950.33917	-37.41189	493.40943	935.48421	-209.02847	
60	0.59000000	375.97333	514.40346	-17.00568	367.79159	426.57931	-13.69688	167.56030	119.40766	-54.72917	92.98804	80.29820	-96.28143	297.25970	35.46341	-32.44692	327.23268	56.74305	-95.63345	681.53019	528.23009	-296.57203	756.74620	436.02571	-310.56994	842.69682	113.20074	-294.63540	795.19258	42.33462	-261.76118	1015.67148	105.96586	-317.83655	1018.18230	140.93539	-252.06334	320.53569	324.45608	-14.38999	301.84415	456.52230	12.23504	243.97261	356.88278	4.11591	670.18108	410.62373	-324.89020	717.34507	298.87801	-326.54417	524.04581	809.63187	32.80094	515.21441	703.11287	10.39759	453.93653	680.63116	31.18682	411.68794	818.49903	36.09842	402.51812	703.32285	21.09625	622.57788	845.67661	-314.48914	680.32162	720.18976	-315.02174	515.72376	794.00980	-323.55307	583.22757	670.89699	-324.72792	581.90349	1010.43477	-5.17007	395.76496	1063.95061	-94.89333	595.40270	1004.37343	-265.97609	396.40778	1054.97978	-198.64496	465.55851	1550.41649	-262.18565	502.50959	1559.74103	-77.09040	555.21667	1483.87933	-395.86349	606.64141	1483.29218	-189.33773	613.83155	1466.77303	-243.48239	414.26886	1332.17085	67.39455	363.60521	1232.45914	13.92346	371.26639	1254.78097	94.68831	435.47661	1113.23276	142.75762	478.67654	1007.25950	157.33874	435.28743	1007.48716	169.70255	464.62306	1241.36475	-467.58185	385.31910	1177.53640	-405.54975	408.54973	1168.82878	-470.95292	415.84921	994.86856	-480.86394	426.46174	897.64524	-468.59118	386.27072	897.71890	-477.86214	492.44822	938.25417	-15.34622	505.60544	931.13768	-245.22361	505.33835	948.80043	-37.16212	506.40499	933.94497	-208.93378	
61	0.60000000	387.18031	513.21943	-16.38930	377.20512	425.33300	-12.82004	169.94479	122.60518	-54.02648	94.59589	85.31601	-95.97932	297.45214	35.33379	-32.31607	327.31512	56.61956	-95.51753	694.26056	526.79802	-295.82041	768.25421	433.26127	-309.73791	849.13023	110.08547	-294.04905	800.32767	40.97439	-261.52030	1021.43201	100.52809	-318.05451	1024.86965	135.31690	-252.24652	327.30582	324.12653	-13.58773	311.79978	456.84054	12.85374	251.52048	358.51607	4.61298	681.38507	409.06310	-324.17065	726.97234	296.70490	-325.69334	535.52742	808.29759	33.19645	526.65943	701.82822	11.17192	465.33290	679.48940	31.70644	422.86271	817.49029	36.02025	413.98695	702.05923	21.07633	636.25782	845.16713	-313.87384	694.08036	719.55618	-314.01731	529.55857	793.29664	-323.32087	597.05038	670.20082	-324.02430	593.94893	1009.08995	-4.67545	408.47033	1062.53395	-95.58365	609.14627	1003.06517	-265.62330	409.56631	1053.61931	-199.14735	479.41563	1547.75855	-266.74753	515.93998	1559.41056	-81.68183	569.55811	1479.37475	-399.49778	620.54479	1481.26971	-192.83491	627.55987	1463.87319	-246.85845	425.66316	1333.94638	64.75240	374.40165	1234.14772	12.07394	382.13642	1257.04620	92.63927	445.13821	1115.34166	141.87569	487.46971	1009.01972	157.26891	444.13097	1009.70491	169.69310	478.37217	1237.02215	-469.95769	398.32631	1173.85740	-408.10717	421.83143	1164.79846	-473.33099	427.87594	990.80825	-482.89607	437.84599	893.53258	-470.37343	397.39898	893.53710	-479.74297	504.66814	936.85761	-15.46328	519.15980	929.81632	-245.26161	517.77391	947.37950	-37.04442	519.59751	932.57754	-208.97042	
62	0.61000000	398.95306	512.09003	-15.76508	387.13076	424.29974	-11.87481	172.70661	126.20480	-53.33411	96.57334	91.00908	-95.73081	297.69137	35.20665	-32.21638	327.40851	56.54277	-95.40980	707.09965	525.59799	-295.03808	779.64741	430.55108	-308.78820	854.55944	106.95579	-293.35870	803.55985	40.67986	-260.93632	1025.84010	92.77395	-318.22143	1030.73072	127.24963	-252.51565	334.39671	324.03376	-12.72481	322.25092	457.38163	13.39157	259.48812	360.48385	4.99816	692.40735	407.72407	-323.16108	736.20463	294.67105	-324.49953	547.33511	807.12391	33.40254	538.46527	700.68348	11.77386	477.17477	678.45303	32.13931	434.33271	816.52482	35.72975	425.88428	700.82574	20.87345	650.01819	844.82158	-313.20538	707.86124	719.08417	-312.92233	543.39564	792.75283	-323.03432	610.90151	669.67550	-323.18679	606.15127	1007.95157	-4.27252	421.31039	1061.27259	-96.45136	623.01578	1001.97720	-265.33774	422.88871	1052.50408	-199.80967	493.33441	1545.34511	-271.25920	529.56492	1559.15420	-86.21081	583.87433	1475.07023	-403.06024	634.47371	1479.36400	-196.30955	641.37521	1461.20995	-250.20291	437.04211	1335.86746	62.08761	385.26927	1235.96766	10.11647	393.05310	1259.43467	90.47877	454.82902	1117.53526	140.87466	496.19278	1010.93067	157.11149	452.90150	1012.05346	169.53595	492.36105	1232.82471	-472.26879	411.68889	1170.21234	-410.63592	435.50175	1160.85095	-475.66022	440.44104	986.83312	-484.92854	449.77125	889.49224	-472.11994	409.19603	889.55882	-481.70702	517.01547	935.65693	-15.71591	532.88759	928.71138	-245.42659	530.37384	946.03468	-37.08647	533.00673	931.43637	-209.16213	
